<?xml version="1.0" encoding="UTF-8" standalone="no"?>
<!DOCTYPE svg PUBLIC "-//W3C//DTD SVG 1.1//EN"
 "http://www.w3.org/Graphics/SVG/1.1/DTD/svg11.dtd">
<!-- Generated by graphviz version 14.1.1 (0)
 -->
<!-- Title: G Pages: 1 -->
<svg width="1139pt" height="1158pt"
 viewBox="0.00 0.00 1139.00 1158.00" xmlns="http://www.w3.org/2000/svg" xmlns:xlink="http://www.w3.org/1999/xlink">
<g id="graph0" class="graph" transform="scale(1 1) rotate(0) translate(4 1154.14)">
<title>G</title><style>.edge>path:hover{stroke-width:8}</style>
<polygon fill="white" stroke="none" points="-4,4 -4,-1154.14 1135.42,-1154.14 1135.42,4 -4,4"/>
<!-- colorlog -->
<g id="node1" class="node">
<title>colorlog</title><style>.edge>path:hover{stroke-width:8}</style>
<ellipse fill="#c08540" stroke="black" cx="29.88" cy="-1120.62" rx="29.44" ry="18"/>
<text xml:space="preserve" text-anchor="middle" x="29.88" y="-1116.74" font-family="Helvetica,sans-Serif" font-size="10.00" fill="#000000">colorlog</text>
</g>
<!-- mars_utils_logger -->
<g id="node21" class="node">
<title>mars_utils_logger</title><style>.edge>path:hover{stroke-width:8}</style>
<ellipse fill="#64e619" stroke="black" cx="29.88" cy="-835.49" rx="29.88" ry="29.52"/>
<text xml:space="preserve" text-anchor="middle" x="29.88" y="-842.86" font-family="Helvetica,sans-Serif" font-size="10.00" fill="#000000">mars.</text>
<text xml:space="preserve" text-anchor="middle" x="29.88" y="-831.61" font-family="Helvetica,sans-Serif" font-size="10.00" fill="#000000">utils.</text>
<text xml:space="preserve" text-anchor="middle" x="29.88" y="-820.36" font-family="Helvetica,sans-Serif" font-size="10.00" fill="#000000">logger</text>
</g>
<!-- colorlog&#45;&gt;mars_utils_logger -->
<g id="edge1" class="edge">
<title>colorlog&#45;&gt;mars_utils_logger</title><style>.edge>path:hover{stroke-width:8}</style>
<path fill="none" stroke="black" d="M29.88,-1102.33C29.88,-1058.01 29.88,-939.37 29.88,-876.65"/>
<polygon fill="#c08540" stroke="black" points="33.38,-876.76 29.88,-866.76 26.38,-876.76 33.38,-876.76"/>
</g>
<!-- IPython -->
<g id="node2" class="node">
<title>IPython</title><style>.edge>path:hover{stroke-width:8}</style>
<ellipse fill="#cc3333" stroke="black" cx="313.88" cy="-835.49" rx="29.44" ry="18"/>
<text xml:space="preserve" text-anchor="middle" x="313.88" y="-831.61" font-family="Helvetica,sans-Serif" font-size="10.00" fill="#ffffff">IPython</text>
</g>
<!-- mars_analysis_report -->
<g id="node9" class="node">
<title>mars_analysis_report</title><style>.edge>path:hover{stroke-width:8}</style>
<ellipse fill="#4f8a2e" stroke="black" cx="192.88" cy="-550.36" rx="38.89" ry="29.52"/>
<text xml:space="preserve" text-anchor="middle" x="192.88" y="-557.73" font-family="Helvetica,sans-Serif" font-size="10.00" fill="#ffffff">mars.</text>
<text xml:space="preserve" text-anchor="middle" x="192.88" y="-546.48" font-family="Helvetica,sans-Serif" font-size="10.00" fill="#ffffff">analysis.</text>
<text xml:space="preserve" text-anchor="middle" x="192.88" y="-535.23" font-family="Helvetica,sans-Serif" font-size="10.00" fill="#ffffff">report</text>
</g>
<!-- IPython&#45;&gt;mars_analysis_report -->
<g id="edge2" class="edge">
<title>IPython&#45;&gt;mars_analysis_report</title><style>.edge>path:hover{stroke-width:8}</style>
<path fill="none" stroke="black" d="M296.48,-820.65C271.39,-799.97 228.1,-761.34 228.88,-741.45"/>
</g>
<!-- IPython_display -->
<g id="node3" class="node">
<title>IPython_display</title><style>.edge>path:hover{stroke-width:8}</style>
<ellipse fill="#b34c4c" stroke="black" cx="228.88" cy="-835.49" rx="37.3" ry="21.57"/>
<text xml:space="preserve" text-anchor="middle" x="228.88" y="-837.24" font-family="Helvetica,sans-Serif" font-size="10.00" fill="#ffffff">IPython.</text>
<text xml:space="preserve" text-anchor="middle" x="228.88" y="-825.99" font-family="Helvetica,sans-Serif" font-size="10.00" fill="#ffffff">display</text>
</g>
<!-- IPython_display&#45;&gt;mars_analysis_report -->
<g id="edge3" class="edge">
<title>IPython_display&#45;&gt;mars_analysis_report</title><style>.edge>path:hover{stroke-width:8}</style>
<path fill="none" stroke="black" d="M228.42,-813.79C228.11,-794.92 227.91,-766.3 228.88,-741.45"/>
</g>
<!-- joblib -->
<g id="node4" class="node">
<title>joblib</title><style>.edge>path:hover{stroke-width:8}</style>
<ellipse fill="#adb653" stroke="black" cx="450.88" cy="-550.36" rx="27" ry="18"/>
<text xml:space="preserve" text-anchor="middle" x="450.88" y="-546.48" font-family="Helvetica,sans-Serif" font-size="10.00" fill="#000000">joblib</text>
</g>
<!-- mars_feature_binning -->
<g id="node14" class="node">
<title>mars_feature_binning</title><style>.edge>path:hover{stroke-width:8}</style>
<ellipse fill="#407a1e" stroke="black" cx="565.88" cy="-346.32" rx="34.65" ry="29.52"/>
<text xml:space="preserve" text-anchor="middle" x="565.88" y="-353.69" font-family="Helvetica,sans-Serif" font-size="10.00" fill="#ffffff">mars.</text>
<text xml:space="preserve" text-anchor="middle" x="565.88" y="-342.44" font-family="Helvetica,sans-Serif" font-size="10.00" fill="#ffffff">feature.</text>
<text xml:space="preserve" text-anchor="middle" x="565.88" y="-331.19" font-family="Helvetica,sans-Serif" font-size="10.00" fill="#ffffff">binning</text>
</g>
<!-- joblib&#45;&gt;mars_feature_binning -->
<g id="edge4" class="edge">
<title>joblib&#45;&gt;mars_feature_binning</title><style>.edge>path:hover{stroke-width:8}</style>
<path fill="none" stroke="black" d="M451.68,-532.15C452.26,-515.63 452.67,-489.98 450.88,-467.84"/>
</g>
<!-- joblib_Parallel -->
<g id="node5" class="node">
<title>joblib_Parallel</title><style>.edge>path:hover{stroke-width:8}</style>
<ellipse fill="#adb653" stroke="black" cx="529.88" cy="-550.36" rx="34.12" ry="21.57"/>
<text xml:space="preserve" text-anchor="middle" x="529.88" y="-552.11" font-family="Helvetica,sans-Serif" font-size="10.00" fill="#000000">joblib.</text>
<text xml:space="preserve" text-anchor="middle" x="529.88" y="-540.86" font-family="Helvetica,sans-Serif" font-size="10.00" fill="#000000">Parallel</text>
</g>
<!-- joblib_Parallel&#45;&gt;mars_feature_binning -->
<g id="edge5" class="edge">
<title>joblib_Parallel&#45;&gt;mars_feature_binning</title><style>.edge>path:hover{stroke-width:8}</style>
<path fill="none" stroke="black" d="M508.76,-532.93C485.82,-514.29 452.21,-484.34 450.88,-467.84"/>
</g>
<!-- mars_analysis -->
<g id="node6" class="node">
<title>mars_analysis</title><style>.edge>path:hover{stroke-width:8}</style>
<polygon fill="blue" stroke="black" points="713.25,-36 636.5,-36 636.5,0 713.25,0 713.25,-36"/>
<text xml:space="preserve" text-anchor="middle" x="674.88" y="-14.12" font-family="Helvetica,sans-Serif" font-size="10.00" fill="white">mars.analysis</text>
</g>
<!-- mars_analysis_config -->
<g id="node7" class="node">
<title>mars_analysis_config</title><style>.edge>path:hover{stroke-width:8}</style>
<ellipse fill="#71ce3b" stroke="black" cx="702.88" cy="-179.27" rx="38.89" ry="29.52"/>
<text xml:space="preserve" text-anchor="middle" x="702.88" y="-186.65" font-family="Helvetica,sans-Serif" font-size="10.00" fill="#000000">mars.</text>
<text xml:space="preserve" text-anchor="middle" x="702.88" y="-175.4" font-family="Helvetica,sans-Serif" font-size="10.00" fill="#000000">analysis.</text>
<text xml:space="preserve" text-anchor="middle" x="702.88" y="-164.15" font-family="Helvetica,sans-Serif" font-size="10.00" fill="#000000">config</text>
</g>
<!-- mars_analysis_config&#45;&gt;mars_analysis -->
<g id="edge6" class="edge">
<title>mars_analysis_config&#45;&gt;mars_analysis</title><style>.edge>path:hover{stroke-width:8}</style>
<path fill="none" stroke="black" d="M697.87,-149.8C692.78,-120.86 684.95,-76.28 679.86,-47.38"/>
<polygon fill="#71ce3b" stroke="black" points="683.38,-47.14 678.2,-37.9 676.48,-48.35 683.38,-47.14"/>
</g>
<!-- mars_analysis_profiler -->
<g id="node8" class="node">
<title>mars_analysis_profiler</title><style>.edge>path:hover{stroke-width:8}</style>
<polygon fill="blue" stroke="black" points="674.38,-113.75 619.38,-113.75 619.38,-72 674.38,-72 674.38,-113.75"/>
<text xml:space="preserve" text-anchor="middle" x="646.88" y="-100.25" font-family="Helvetica,sans-Serif" font-size="10.00" fill="white">mars.</text>
<text xml:space="preserve" text-anchor="middle" x="646.88" y="-89" font-family="Helvetica,sans-Serif" font-size="10.00" fill="white">analysis.</text>
<text xml:space="preserve" text-anchor="middle" x="646.88" y="-77.75" font-family="Helvetica,sans-Serif" font-size="10.00" fill="white">profiler</text>
</g>
<!-- mars_analysis_config&#45;&gt;mars_analysis_profiler -->
<g id="edge7" class="edge">
<title>mars_analysis_config&#45;&gt;mars_analysis_profiler</title><style>.edge>path:hover{stroke-width:8}</style>
<path fill="none" stroke="black" d="M685.77,-152.49C679.71,-143.35 672.83,-133 666.57,-123.56"/>
<polygon fill="#71ce3b" stroke="black" points="669.61,-121.81 661.16,-115.41 663.78,-125.68 669.61,-121.81"/>
</g>
<!-- mars_analysis_profiler&#45;&gt;mars_analysis -->
<g id="edge8" class="edge">
<title>mars_analysis_profiler&#45;&gt;mars_analysis</title><style>.edge>path:hover{stroke-width:8}</style>
<path fill="none" stroke="black" d="M654.67,-71.58C657.61,-63.93 661,-55.1 664.16,-46.88"/>
<polygon fill="blue" stroke="black" points="667.39,-48.23 667.71,-37.64 660.86,-45.72 667.39,-48.23"/>
</g>
<!-- mars_analysis_report&#45;&gt;mars_analysis_profiler -->
<g id="edge9" class="edge">
<title>mars_analysis_report&#45;&gt;mars_analysis_profiler</title><style>.edge>path:hover{stroke-width:8}</style>
<path fill="none" stroke="black" d="M190.22,-520.43C189.44,-504.73 189.55,-485.07 192.88,-467.84"/>
</g>
<!-- mars_core -->
<g id="node10" class="node">
<title>mars_core</title><style>.edge>path:hover{stroke-width:8}</style>
<polygon fill="blue" stroke="black" points="792.63,-484.84 733.13,-484.84 733.13,-448.84 792.63,-448.84 792.63,-484.84"/>
<text xml:space="preserve" text-anchor="middle" x="762.88" y="-462.96" font-family="Helvetica,sans-Serif" font-size="10.00" fill="white">mars.core</text>
</g>
<!-- mars_core&#45;&gt;mars_analysis_profiler -->
<g id="edge10" class="edge">
<title>mars_core&#45;&gt;mars_analysis_profiler</title><style>.edge>path:hover{stroke-width:8}</style>
<path fill="none" stroke="black" d="M792.89,-452.52C821.21,-439.48 859.29,-420.49 858.88,-412.84"/>
<path fill="none" stroke="black" d="M858.88,-411.84C857.09,-378.6 835.99,-376.97 820.88,-347.32"/>
</g>
<!-- mars_core&#45;&gt;mars_feature_binning -->
<g id="edge11" class="edge">
<title>mars_core&#45;&gt;mars_feature_binning</title><style>.edge>path:hover{stroke-width:8}</style>
<path fill="none" stroke="black" d="M792.93,-453.58C812.04,-443.89 831.37,-429.28 820.88,-412.84"/>
<path fill="none" stroke="black" d="M820.88,-411.84C798.47,-376.72 678.48,-358.89 611.38,-351.54"/>
<polygon fill="blue" stroke="black" points="612.11,-348.09 601.8,-350.52 611.38,-355.06 612.11,-348.09"/>
</g>
<!-- mars_core_base -->
<g id="node11" class="node">
<title>mars_core_base</title><style>.edge>path:hover{stroke-width:8}</style>
<polygon fill="blue" stroke="black" points="754.63,-568.36 671.13,-568.36 671.13,-532.36 754.63,-532.36 754.63,-568.36"/>
<text xml:space="preserve" text-anchor="middle" x="712.88" y="-546.48" font-family="Helvetica,sans-Serif" font-size="10.00" fill="white">mars.core.base</text>
</g>
<!-- mars_core_base&#45;&gt;mars_analysis_profiler -->
<g id="edge12" class="edge">
<title>mars_core_base&#45;&gt;mars_analysis_profiler</title><style>.edge>path:hover{stroke-width:8}</style>
<path fill="none" stroke="black" d="M820.88,-345.32C795.86,-296.23 632.39,-235.25 635.88,-180.27"/>
<path fill="none" stroke="black" d="M782.88,-411.84C781.88,-378.57 835.36,-377.28 820.88,-347.32"/>
</g>
<!-- mars_core_base&#45;&gt;mars_core -->
<g id="edge13" class="edge">
<title>mars_core_base&#45;&gt;mars_core</title><style>.edge>path:hover{stroke-width:8}</style>
<path fill="none" stroke="black" d="M723.48,-532.07C730.11,-521.26 738.79,-507.11 746.31,-494.85"/>
<polygon fill="blue" stroke="black" points="749.25,-496.75 751.5,-486.39 743.28,-493.09 749.25,-496.75"/>
</g>
<!-- mars_core_base&#45;&gt;mars_feature_binning -->
<g id="edge14" class="edge">
<title>mars_core_base&#45;&gt;mars_feature_binning</title><style>.edge>path:hover{stroke-width:8}</style>
<path fill="none" stroke="black" d="M710.42,-532.23C708.28,-510.94 707.68,-474.32 723.88,-448.84 740.35,-422.91 782.48,-443.55 782.88,-412.84"/>
<path fill="none" stroke="black" d="M782.88,-411.84C781.82,-376.52 675.19,-358.98 611.82,-351.67"/>
<polygon fill="blue" stroke="black" points="612.35,-348.21 602.03,-350.59 611.58,-355.17 612.35,-348.21"/>
</g>
<!-- mars_core_exceptions -->
<g id="node12" class="node">
<title>mars_core_exceptions</title><style>.edge>path:hover{stroke-width:8}</style>
<ellipse fill="#71ce3b" stroke="black" cx="747.88" cy="-645.4" rx="44.72" ry="29.52"/>
<text xml:space="preserve" text-anchor="middle" x="747.88" y="-652.78" font-family="Helvetica,sans-Serif" font-size="10.00" fill="#000000">mars.</text>
<text xml:space="preserve" text-anchor="middle" x="747.88" y="-641.53" font-family="Helvetica,sans-Serif" font-size="10.00" fill="#000000">core.</text>
<text xml:space="preserve" text-anchor="middle" x="747.88" y="-630.28" font-family="Helvetica,sans-Serif" font-size="10.00" fill="#000000">exceptions</text>
</g>
<!-- mars_core_exceptions&#45;&gt;mars_core -->
<g id="edge15" class="edge">
<title>mars_core_exceptions&#45;&gt;mars_core</title><style>.edge>path:hover{stroke-width:8}</style>
<path fill="none" stroke="black" d="M756.47,-616.09C759.45,-604.92 762.41,-591.91 763.88,-579.88 767.06,-553.83 764.12,-547.08 763.88,-520.84 763.8,-512.89 763.66,-504.28 763.51,-496.35"/>
<polygon fill="#71ce3b" stroke="black" points="767.02,-496.46 763.31,-486.53 760.02,-496.6 767.02,-496.46"/>
</g>
<!-- mars_core_exceptions&#45;&gt;mars_core_base -->
<g id="edge16" class="edge">
<title>mars_core_exceptions&#45;&gt;mars_core_base</title><style>.edge>path:hover{stroke-width:8}</style>
<path fill="none" stroke="black" d="M737.28,-616.23C732.86,-604.48 727.74,-590.86 723.33,-579.15"/>
<polygon fill="#71ce3b" stroke="black" points="726.7,-578.17 719.9,-570.04 720.15,-580.63 726.7,-578.17"/>
</g>
<!-- mars_feature -->
<g id="node13" class="node">
<title>mars_feature</title><style>.edge>path:hover{stroke-width:8}</style>
<ellipse fill="#6ec040" stroke="black" cx="635.88" cy="-262.79" rx="41.86" ry="18"/>
<text xml:space="preserve" text-anchor="middle" x="635.88" y="-258.92" font-family="Helvetica,sans-Serif" font-size="10.00" fill="#000000">mars.feature</text>
</g>
<!-- mars_feature&#45;&gt;mars_analysis_profiler -->
<g id="edge17" class="edge">
<title>mars_feature&#45;&gt;mars_analysis_profiler</title><style>.edge>path:hover{stroke-width:8}</style>
<path fill="none" stroke="black" d="M635.24,-244.6C634.79,-228.08 634.47,-202.45 635.88,-180.27"/>
</g>
<!-- mars_feature_binning&#45;&gt;mars_analysis_profiler -->
<g id="edge18" class="edge">
<title>mars_feature_binning&#45;&gt;mars_analysis_profiler</title><style>.edge>path:hover{stroke-width:8}</style>
<path fill="none" stroke="black" d="M556.39,-317.67C552.04,-299.31 550.74,-276.36 565.88,-263.79"/>
</g>
<!-- mars_feature_binning&#45;&gt;mars_feature -->
<g id="edge19" class="edge">
<title>mars_feature_binning&#45;&gt;mars_feature</title><style>.edge>path:hover{stroke-width:8}</style>
<path fill="none" stroke="black" d="M585.75,-322.17C594.78,-311.65 605.47,-299.2 614.66,-288.5"/>
<polygon fill="#407a1e" stroke="black" points="617.11,-291.02 620.97,-281.15 611.8,-286.46 617.11,-291.02"/>
</g>
<!-- mars_metrics_calculation -->
<g id="node15" class="node">
<title>mars_metrics_calculation</title><style>.edge>path:hover{stroke-width:8}</style>
<ellipse fill="#5b8f3d" stroke="black" cx="892.88" cy="-550.36" rx="44.19" ry="29.52"/>
<text xml:space="preserve" text-anchor="middle" x="892.88" y="-557.73" font-family="Helvetica,sans-Serif" font-size="10.00" fill="#ffffff">mars.</text>
<text xml:space="preserve" text-anchor="middle" x="892.88" y="-546.48" font-family="Helvetica,sans-Serif" font-size="10.00" fill="#ffffff">metrics.</text>
<text xml:space="preserve" text-anchor="middle" x="892.88" y="-535.23" font-family="Helvetica,sans-Serif" font-size="10.00" fill="#ffffff">calculation</text>
</g>
<!-- mars_modeling_base -->
<g id="node16" class="node">
<title>mars_modeling_base</title><style>.edge>path:hover{stroke-width:8}</style>
<ellipse fill="#74c247" stroke="black" cx="1089.88" cy="-1120.62" rx="41.01" ry="29.52"/>
<text xml:space="preserve" text-anchor="middle" x="1089.88" y="-1127.99" font-family="Helvetica,sans-Serif" font-size="10.00" fill="#000000">mars.</text>
<text xml:space="preserve" text-anchor="middle" x="1089.88" y="-1116.74" font-family="Helvetica,sans-Serif" font-size="10.00" fill="#000000">modeling.</text>
<text xml:space="preserve" text-anchor="middle" x="1089.88" y="-1105.49" font-family="Helvetica,sans-Serif" font-size="10.00" fill="#000000">base</text>
</g>
<!-- mars_modeling_strategies -->
<g id="node17" class="node">
<title>mars_modeling_strategies</title><style>.edge>path:hover{stroke-width:8}</style>
<ellipse fill="#65b03a" stroke="black" cx="1089.88" cy="-1025.58" rx="41.54" ry="29.52"/>
<text xml:space="preserve" text-anchor="middle" x="1089.88" y="-1032.95" font-family="Helvetica,sans-Serif" font-size="10.00" fill="#000000">mars.</text>
<text xml:space="preserve" text-anchor="middle" x="1089.88" y="-1021.7" font-family="Helvetica,sans-Serif" font-size="10.00" fill="#000000">modeling.</text>
<text xml:space="preserve" text-anchor="middle" x="1089.88" y="-1010.45" font-family="Helvetica,sans-Serif" font-size="10.00" fill="#000000">strategies</text>
</g>
<!-- mars_modeling_base&#45;&gt;mars_modeling_strategies -->
<g id="edge20" class="edge">
<title>mars_modeling_base&#45;&gt;mars_modeling_strategies</title><style>.edge>path:hover{stroke-width:8}</style>
<path fill="none" stroke="black" d="M1089.88,-1090.69C1089.88,-1083.16 1089.88,-1074.92 1089.88,-1066.92"/>
<polygon fill="#74c247" stroke="black" points="1093.38,-1067 1089.88,-1057 1086.38,-1067 1093.38,-1067"/>
</g>
<!-- mars_modeling_tuner -->
<g id="node18" class="node">
<title>mars_modeling_tuner</title><style>.edge>path:hover{stroke-width:8}</style>
<ellipse fill="#68a446" stroke="black" cx="1089.88" cy="-930.53" rx="41.01" ry="29.52"/>
<text xml:space="preserve" text-anchor="middle" x="1089.88" y="-937.91" font-family="Helvetica,sans-Serif" font-size="10.00" fill="#000000">mars.</text>
<text xml:space="preserve" text-anchor="middle" x="1089.88" y="-926.66" font-family="Helvetica,sans-Serif" font-size="10.00" fill="#000000">modeling.</text>
<text xml:space="preserve" text-anchor="middle" x="1089.88" y="-915.41" font-family="Helvetica,sans-Serif" font-size="10.00" fill="#000000">tuner</text>
</g>
<!-- mars_modeling_strategies&#45;&gt;mars_modeling_tuner -->
<g id="edge21" class="edge">
<title>mars_modeling_strategies&#45;&gt;mars_modeling_tuner</title><style>.edge>path:hover{stroke-width:8}</style>
<path fill="none" stroke="black" d="M1089.88,-995.65C1089.88,-988.12 1089.88,-979.87 1089.88,-971.87"/>
<polygon fill="#65b03a" stroke="black" points="1093.38,-971.96 1089.88,-961.96 1086.38,-971.96 1093.38,-971.96"/>
</g>
<!-- mars_utils -->
<g id="node19" class="node">
<title>mars_utils</title><style>.edge>path:hover{stroke-width:8}</style>
<ellipse fill="#6ae722" stroke="black" cx="293.88" cy="-740.45" rx="34.76" ry="18"/>
<text xml:space="preserve" text-anchor="middle" x="293.88" y="-736.57" font-family="Helvetica,sans-Serif" font-size="10.00" fill="#000000">mars.utils</text>
</g>
<!-- mars_utils&#45;&gt;mars_analysis_profiler -->
<g id="edge22" class="edge">
<title>mars_utils&#45;&gt;mars_analysis_profiler</title><style>.edge>path:hover{stroke-width:8}</style>
<path fill="none" stroke="black" d="M273.88,-644.4C266.42,-512.56 164.66,-428.42 268.88,-347.32"/>
</g>
<!-- mars_utils&#45;&gt;mars_analysis_report -->
<g id="edge23" class="edge">
<title>mars_utils&#45;&gt;mars_analysis_report</title><style>.edge>path:hover{stroke-width:8}</style>
<path fill="none" stroke="black" d="M288.48,-722.17C283.09,-703.66 275.4,-673.29 273.88,-646.4"/>
<path fill="none" stroke="black" d="M273.88,-644.4C272.31,-616.77 251.69,-593.33 231.65,-576.89"/>
<polygon fill="#6ae722" stroke="black" points="233.8,-574.12 223.75,-570.76 229.51,-579.66 233.8,-574.12"/>
</g>
<!-- mars_utils&#45;&gt;mars_core_base -->
<g id="edge24" class="edge">
<title>mars_utils&#45;&gt;mars_core_base</title><style>.edge>path:hover{stroke-width:8}</style>
<path fill="none" stroke="black" d="M357.88,-644.4C369.95,-633.06 367.33,-623.81 381.88,-615.88 492.41,-555.59 543.47,-619.83 662.88,-579.88 667.59,-578.3 672.35,-576.26 676.98,-574"/>
<polygon fill="#6ae722" stroke="black" points="678.27,-577.28 685.46,-569.49 674.99,-571.1 678.27,-577.28"/>
<path fill="none" stroke="black" d="M302.46,-722.72C313.33,-702.76 333.57,-669.21 357.88,-646.4"/>
</g>
<!-- mars_utils&#45;&gt;mars_feature_binning -->
<g id="edge25" class="edge">
<title>mars_utils&#45;&gt;mars_feature_binning</title><style>.edge>path:hover{stroke-width:8}</style>
<path fill="none" stroke="black" d="M395.88,-549.36C403.17,-535.99 406.37,-533.47 414.88,-520.84 430.77,-497.21 453.17,-496.22 450.88,-467.84"/>
<path fill="none" stroke="black" d="M273.88,-644.4C272.8,-625.38 290.14,-626.62 305.88,-615.88 335.1,-595.94 350.42,-603.37 376.88,-579.88 388.26,-569.77 388.58,-564.73 395.88,-551.36"/>
</g>
<!-- mars_utils_decorators -->
<g id="node20" class="node">
<title>mars_utils_decorators</title><style>.edge>path:hover{stroke-width:8}</style>
<ellipse fill="#5bbf21" stroke="black" cx="467.88" cy="-740.45" rx="43.66" ry="29.52"/>
<text xml:space="preserve" text-anchor="middle" x="467.88" y="-747.82" font-family="Helvetica,sans-Serif" font-size="10.00" fill="#000000">mars.</text>
<text xml:space="preserve" text-anchor="middle" x="467.88" y="-736.57" font-family="Helvetica,sans-Serif" font-size="10.00" fill="#000000">utils.</text>
<text xml:space="preserve" text-anchor="middle" x="467.88" y="-725.32" font-family="Helvetica,sans-Serif" font-size="10.00" fill="#000000">decorators</text>
</g>
<!-- mars_utils_decorators&#45;&gt;mars_analysis_profiler -->
<g id="edge26" class="edge">
<title>mars_utils_decorators&#45;&gt;mars_analysis_profiler</title><style>.edge>path:hover{stroke-width:8}</style>
<path fill="none" stroke="black" d="M509.79,-731.66C598.9,-715.07 799.28,-677.52 801.88,-674.92 837.99,-638.71 830.77,-498 844.88,-448.84 849.61,-432.34 859.8,-429.98 858.88,-412.84"/>
</g>
<!-- mars_utils_decorators&#45;&gt;mars_core_base -->
<g id="edge27" class="edge">
<title>mars_utils_decorators&#45;&gt;mars_core_base</title><style>.edge>path:hover{stroke-width:8}</style>
<path fill="none" stroke="black" d="M508.26,-728.72C565.17,-712.5 663.35,-680.04 674.88,-646.4"/>
<path fill="none" stroke="black" d="M674.88,-644.4C682.51,-622.12 692.66,-597.47 700.55,-579.14"/>
<polygon fill="#5bbf21" stroke="black" points="703.74,-580.58 704.52,-570.01 697.32,-577.78 703.74,-580.58"/>
</g>
<!-- mars_utils_decorators&#45;&gt;mars_feature_binning -->
<g id="edge28" class="edge">
<title>mars_utils_decorators&#45;&gt;mars_feature_binning</title><style>.edge>path:hover{stroke-width:8}</style>
<path fill="none" stroke="black" d="M454.79,-712.07C431.96,-663.54 388.01,-566.09 395.88,-551.36"/>
</g>
<!-- mars_utils_logger&#45;&gt;mars_analysis_profiler -->
<g id="edge29" class="edge">
<title>mars_utils_logger&#45;&gt;mars_analysis_profiler</title><style>.edge>path:hover{stroke-width:8}</style>
<path fill="none" stroke="black" d="M29.8,-805.91C30.89,-748.03 39.69,-614.51 94.88,-520.84 112.93,-490.18 127.77,-490.89 154.88,-467.84"/>
<path fill="none" stroke="black" d="M192.88,-411.84C217.73,-375.15 231.14,-370.55 268.88,-347.32"/>
<path fill="none" stroke="black" d="M154.88,-465.84C175.19,-445.16 176.62,-436.83 192.88,-412.84"/>
<path fill="none" stroke="black" d="M268.88,-345.32C385.44,-273.55 460.55,-351.22 565.88,-263.79"/>
<path fill="none" stroke="black" d="M565.88,-261.79C575.06,-254.17 635.35,-192.2 635.88,-180.27"/>
<path fill="none" stroke="black" d="M635.88,-178.27C636.65,-160.63 639.1,-141.06 641.49,-125.21"/>
<polygon fill="#64e619" stroke="black" points="644.94,-125.83 643.05,-115.41 638.03,-124.74 644.94,-125.83"/>
</g>
<!-- mars_utils_logger&#45;&gt;mars_analysis_report -->
<g id="edge30" class="edge">
<title>mars_utils_logger&#45;&gt;mars_analysis_report</title><style>.edge>path:hover{stroke-width:8}</style>
<path fill="none" stroke="black" d="M58.99,-827.26C113.9,-812.78 227.44,-778.41 228.88,-741.45"/>
<path fill="none" stroke="black" d="M228.88,-739.45C230.91,-687.21 216.86,-628.19 205.72,-590.42"/>
<polygon fill="#64e619" stroke="black" points="209.07,-589.41 202.82,-580.86 202.38,-591.45 209.07,-589.41"/>
</g>
<!-- mars_utils_logger&#45;&gt;mars_feature_binning -->
<g id="edge31" class="edge">
<title>mars_utils_logger&#45;&gt;mars_feature_binning</title><style>.edge>path:hover{stroke-width:8}</style>
<path fill="none" stroke="black" d="M154.88,-465.84C261.38,-372.9 436.72,-352.64 519.66,-348.37"/>
<polygon fill="#64e619" stroke="black" points="519.62,-351.87 529.45,-347.92 519.3,-344.88 519.62,-351.87"/>
</g>
<!-- mars_utils_logger&#45;&gt;mars_utils_decorators -->
<g id="edge32" class="edge">
<title>mars_utils_logger&#45;&gt;mars_utils_decorators</title><style>.edge>path:hover{stroke-width:8}</style>
<path fill="none" stroke="black" d="M59.45,-828.95C141.11,-813.65 364.2,-771.83 371.88,-769.97 386.96,-766.31 403.19,-761.74 417.94,-757.33"/>
<polygon fill="#64e619" stroke="black" points="418.88,-760.71 427.44,-754.45 416.85,-754.01 418.88,-760.71"/>
</g>
<!-- numpy -->
<g id="node22" class="node">
<title>numpy</title><style>.edge>path:hover{stroke-width:8}</style>
<ellipse fill="#06f932" stroke="black" cx="613.88" cy="-1120.62" rx="27" ry="18"/>
<text xml:space="preserve" text-anchor="middle" x="613.88" y="-1116.74" font-family="Helvetica,sans-Serif" font-size="10.00" fill="#000000">numpy</text>
</g>
<!-- numpy&#45;&gt;mars_analysis_profiler -->
<g id="edge33" class="edge">
<title>numpy&#45;&gt;mars_analysis_profiler</title><style>.edge>path:hover{stroke-width:8}</style>
<path fill="none" stroke="black" d="M641.07,-1119.78C703.1,-1119.1 858.47,-1111.43 971.88,-1055.1 988.64,-1046.77 992.96,-1042.46 1002.88,-1026.58"/>
<path fill="none" stroke="black" d="M1002.88,-1024.58C1047.15,-953.67 1002.88,-920.08 1002.88,-836.49 1002.88,-836.49 1002.88,-836.49 1002.88,-644.4 1002.88,-587.44 997.75,-569.94 968.88,-520.84 951.51,-491.31 862.15,-446.94 858.88,-412.84"/>
</g>
<!-- numpy&#45;&gt;mars_analysis_report -->
<g id="edge34" class="edge">
<title>numpy&#45;&gt;mars_analysis_report</title><style>.edge>path:hover{stroke-width:8}</style>
<path fill="none" stroke="black" d="M163.88,-1024.58C89.24,-961.8 149.16,-897.48 182.88,-805.97 195.05,-772.92 229.38,-776.66 228.88,-741.45"/>
</g>
<!-- numpy&#45;&gt;mars_feature_binning -->
<g id="edge35" class="edge">
<title>numpy&#45;&gt;mars_feature_binning</title><style>.edge>path:hover{stroke-width:8}</style>
<path fill="none" stroke="black" d="M163.88,-1024.58C91.39,-970.96 87.88,-926.65 87.88,-836.49 87.88,-836.49 87.88,-836.49 87.88,-644.4 87.88,-453.04 282.08,-503 450.88,-412.84"/>
<path fill="none" stroke="black" d="M450.88,-411.84C475.55,-396.26 504.17,-380.2 526.68,-368"/>
<polygon fill="#06f932" stroke="black" points="528.08,-371.22 535.23,-363.4 524.77,-365.05 528.08,-371.22"/>
<path fill="none" stroke="black" d="M586.97,-1117.13C500.53,-1108.68 231.52,-1078.64 163.88,-1026.58"/>
</g>
<!-- numpy&#45;&gt;mars_metrics_calculation -->
<g id="edge36" class="edge">
<title>numpy&#45;&gt;mars_metrics_calculation</title><style>.edge>path:hover{stroke-width:8}</style>
<path fill="none" stroke="black" d="M633.93,-1108.36C653.51,-1096.73 683.42,-1077.19 704.88,-1055.1 715.49,-1044.17 715.66,-1039.4 723.88,-1026.58"/>
<path fill="none" stroke="black" d="M723.88,-1024.58C746.19,-989.76 713.2,-971.48 723.88,-931.53"/>
</g>
<!-- scipy -->
<g id="node28" class="node">
<title>scipy</title><style>.edge>path:hover{stroke-width:8}</style>
<ellipse fill="#b731c4" stroke="black" cx="778.88" cy="-930.53" rx="27" ry="18"/>
<text xml:space="preserve" text-anchor="middle" x="778.88" y="-926.66" font-family="Helvetica,sans-Serif" font-size="10.00" fill="#ffffff">scipy</text>
</g>
<!-- numpy&#45;&gt;scipy -->
<g id="edge37" class="edge">
<title>numpy&#45;&gt;scipy</title><style>.edge>path:hover{stroke-width:8}</style>
<path fill="none" stroke="black" d="M723.88,-1024.58C738.08,-1002.42 753.22,-976.61 764.02,-957.8"/>
<polygon fill="#06f932" stroke="black" points="767.02,-959.62 768.94,-949.2 760.94,-956.15 767.02,-959.62"/>
</g>
<!-- sklearn -->
<g id="node30" class="node">
<title>sklearn</title><style>.edge>path:hover{stroke-width:8}</style>
<polygon fill="blue" stroke="black" points="529.88,-853.49 475.88,-853.49 475.88,-817.49 529.88,-817.49 529.88,-853.49"/>
<text xml:space="preserve" text-anchor="middle" x="502.88" y="-831.61" font-family="Helvetica,sans-Serif" font-size="10.00" fill="white">sklearn</text>
</g>
<!-- numpy&#45;&gt;sklearn -->
<g id="edge38" class="edge">
<title>numpy&#45;&gt;sklearn</title><style>.edge>path:hover{stroke-width:8}</style>
<path fill="none" stroke="black" d="M590.93,-1110.42C569.1,-1100.35 537.37,-1081.97 521.88,-1055.1 487.09,-994.76 492.3,-909.12 498.12,-865.08"/>
<polygon fill="#06f932" stroke="black" points="501.56,-865.71 499.53,-855.32 494.63,-864.71 501.56,-865.71"/>
</g>
<!-- sklearn_base -->
<g id="node31" class="node">
<title>sklearn_base</title><style>.edge>path:hover{stroke-width:8}</style>
<polygon fill="blue" stroke="black" points="657.63,-948.53 586.13,-948.53 586.13,-912.53 657.63,-912.53 657.63,-948.53"/>
<text xml:space="preserve" text-anchor="middle" x="621.88" y="-926.66" font-family="Helvetica,sans-Serif" font-size="10.00" fill="white">sklearn.base</text>
</g>
<!-- numpy&#45;&gt;sklearn_base -->
<g id="edge39" class="edge">
<title>numpy&#45;&gt;sklearn_base</title><style>.edge>path:hover{stroke-width:8}</style>
<path fill="none" stroke="black" d="M614.61,-1102.26C615.99,-1069.86 618.97,-999.88 620.65,-960.31"/>
<polygon fill="#06f932" stroke="black" points="624.15,-960.5 621.07,-950.36 617.15,-960.2 624.15,-960.5"/>
</g>
<!-- optbinning -->
<g id="node23" class="node">
<title>optbinning</title><style>.edge>path:hover{stroke-width:8}</style>
<ellipse fill="#53b69b" stroke="black" cx="617.88" cy="-550.36" rx="35.65" ry="18"/>
<text xml:space="preserve" text-anchor="middle" x="617.88" y="-546.48" font-family="Helvetica,sans-Serif" font-size="10.00" fill="#000000">optbinning</text>
</g>
<!-- optbinning&#45;&gt;mars_feature_binning -->
<g id="edge40" class="edge">
<title>optbinning&#45;&gt;mars_feature_binning</title><style>.edge>path:hover{stroke-width:8}</style>
<path fill="none" stroke="black" d="M597.21,-535.32C589.7,-530.47 581.05,-525.17 572.88,-520.84 520.64,-493.15 455.64,-526.76 450.88,-467.84"/>
</g>
<!-- pandas -->
<g id="node24" class="node">
<title>pandas</title><style>.edge>path:hover{stroke-width:8}</style>
<ellipse fill="#0cb4f3" stroke="black" cx="295.88" cy="-1025.58" rx="28.11" ry="18"/>
<text xml:space="preserve" text-anchor="middle" x="295.88" y="-1021.7" font-family="Helvetica,sans-Serif" font-size="10.00" fill="#000000">pandas</text>
</g>
<!-- pandas&#45;&gt;mars_analysis_profiler -->
<g id="edge41" class="edge">
<title>pandas&#45;&gt;mars_analysis_profiler</title><style>.edge>path:hover{stroke-width:8}</style>
<path fill="none" stroke="black" d="M192.88,-465.84C197.34,-442.71 179.66,-432.34 192.88,-412.84"/>
<path fill="none" stroke="black" d="M274.34,-1013.78C228.6,-989.15 125.88,-924.08 125.88,-836.49 125.88,-836.49 125.88,-836.49 125.88,-644.4 125.88,-588.84 121,-571.01 144.88,-520.84 158.53,-492.14 186.85,-499.04 192.88,-467.84"/>
</g>
<!-- pandas&#45;&gt;mars_analysis_report -->
<g id="edge42" class="edge">
<title>pandas&#45;&gt;mars_analysis_report</title><style>.edge>path:hover{stroke-width:8}</style>
<path fill="none" stroke="black" d="M307.79,-1009.25C330.63,-978.12 377.74,-904.69 370.88,-836.49"/>
<path fill="none" stroke="black" d="M370.88,-834.49C370.92,-759.04 229.95,-816.89 228.88,-741.45"/>
</g>
<!-- pandas&#45;&gt;mars_core_base -->
<g id="edge43" class="edge">
<title>pandas&#45;&gt;mars_core_base</title><style>.edge>path:hover{stroke-width:8}</style>
<path fill="none" stroke="black" d="M357.88,-739.45C351.02,-698.67 327.73,-674.7 357.88,-646.4"/>
</g>
<!-- pandas&#45;&gt;mars_feature_binning -->
<g id="edge44" class="edge">
<title>pandas&#45;&gt;mars_feature_binning</title><style>.edge>path:hover{stroke-width:8}</style>
<path fill="none" stroke="black" d="M370.88,-834.49C370.9,-792.73 364.8,-782.62 357.88,-741.45"/>
<path fill="none" stroke="black" d="M357.88,-739.45C348.71,-684.94 323.84,-667.39 343.88,-615.88 351.74,-595.65 363.49,-596.96 376.88,-579.88 386.27,-567.89 388.58,-564.73 395.88,-551.36"/>
</g>
<!-- pandas&#45;&gt;mars_utils_decorators -->
<g id="edge45" class="edge">
<title>pandas&#45;&gt;mars_utils_decorators</title><style>.edge>path:hover{stroke-width:8}</style>
<path fill="none" stroke="black" d="M370.88,-834.49C367.69,-802.85 395.38,-778.53 421.98,-762.7"/>
<polygon fill="#0cb4f3" stroke="black" points="423.34,-765.95 430.35,-758 419.91,-759.85 423.34,-765.95"/>
</g>
<!-- polars -->
<g id="node25" class="node">
<title>polars</title><style>.edge>path:hover{stroke-width:8}</style>
<polygon fill="blue" stroke="black" points="962.88,-1043.58 908.88,-1043.58 908.88,-1007.58 962.88,-1007.58 962.88,-1043.58"/>
<text xml:space="preserve" text-anchor="middle" x="935.88" y="-1021.7" font-family="Helvetica,sans-Serif" font-size="10.00" fill="white">polars</text>
</g>
<!-- polars&#45;&gt;mars_analysis_profiler -->
<g id="edge46" class="edge">
<title>polars&#45;&gt;mars_analysis_profiler</title><style>.edge>path:hover{stroke-width:8}</style>
<path fill="none" stroke="black" d="M858.88,-465.84C845.66,-446.34 861.12,-436.28 858.88,-412.84"/>
</g>
<!-- polars&#45;&gt;mars_analysis_report -->
<g id="edge47" class="edge">
<title>polars&#45;&gt;mars_analysis_report</title><style>.edge>path:hover{stroke-width:8}</style>
<path fill="none" stroke="black" d="M799.88,-834.49C746.12,-796.72 724.66,-801.23 666.88,-769.97 549.74,-706.6 532.33,-668.25 409.88,-615.88 354.36,-592.14 336.66,-597.39 278.88,-579.88 265.7,-575.89 251.49,-571.29 238.48,-566.97"/>
<polygon fill="blue" stroke="black" points="239.92,-563.76 229.33,-563.91 237.7,-570.4 239.92,-563.76"/>
<path fill="none" stroke="black" d="M935.88,-929.53C917.2,-873.16 862.58,-905.21 818.88,-865.01 807.66,-854.7 812.46,-845.07 799.88,-836.49"/>
<path fill="none" stroke="black" d="M939.05,-1007.25C941.83,-988.17 944.26,-956.83 935.88,-931.53"/>
</g>
<!-- polars&#45;&gt;mars_core_base -->
<g id="edge48" class="edge">
<title>polars&#45;&gt;mars_core_base</title><style>.edge>path:hover{stroke-width:8}</style>
<path fill="none" stroke="black" d="M799.88,-834.49C725.48,-767.11 638.64,-740 674.88,-646.4"/>
</g>
<!-- polars&#45;&gt;mars_feature_binning -->
<g id="edge49" class="edge">
<title>polars&#45;&gt;mars_feature_binning</title><style>.edge>path:hover{stroke-width:8}</style>
<path fill="none" stroke="black" d="M964.88,-644.4C957.48,-589.33 977.35,-566.63 945.88,-520.84 920.23,-483.52 885.16,-504.7 858.88,-467.84"/>
<path fill="none" stroke="black" d="M858.88,-465.84C842.61,-441.85 836.47,-437.27 820.88,-412.84"/>
</g>
<!-- polars&#45;&gt;mars_metrics_calculation -->
<g id="edge50" class="edge">
<title>polars&#45;&gt;mars_metrics_calculation</title><style>.edge>path:hover{stroke-width:8}</style>
<path fill="none" stroke="black" d="M935.88,-929.53C897.23,-809.09 978.5,-772.16 964.88,-646.4"/>
<path fill="none" stroke="black" d="M964.88,-644.4C961.58,-619.87 945.28,-597.72 929.01,-581.19"/>
<polygon fill="blue" stroke="black" points="931.8,-579.02 922.18,-574.59 926.94,-584.05 931.8,-579.02"/>
</g>
<!-- polars&#45;&gt;mars_utils_decorators -->
<g id="edge51" class="edge">
<title>polars&#45;&gt;mars_utils_decorators</title><style>.edge>path:hover{stroke-width:8}</style>
<path fill="none" stroke="black" d="M908.38,-1022.49C863.21,-1017.88 772.09,-1003.51 709.88,-960.05 683.26,-941.46 688.58,-925.15 666.88,-901.01 624.79,-854.2 611.27,-844.99 561.88,-805.97 545,-792.63 525.51,-778.99 508.67,-767.71"/>
<polygon fill="blue" stroke="black" points="510.63,-764.81 500.36,-762.19 506.76,-770.64 510.63,-764.81"/>
</g>
<!-- polars_selectors -->
<g id="node26" class="node">
<title>polars_selectors</title><style>.edge>path:hover{stroke-width:8}</style>
<polygon fill="blue" stroke="black" points="1030.75,-1138.62 975,-1138.62 975,-1102.62 1030.75,-1102.62 1030.75,-1138.62"/>
<text xml:space="preserve" text-anchor="middle" x="1002.88" y="-1122.37" font-family="Helvetica,sans-Serif" font-size="10.00" fill="white">polars.</text>
<text xml:space="preserve" text-anchor="middle" x="1002.88" y="-1111.12" font-family="Helvetica,sans-Serif" font-size="10.00" fill="white">selectors</text>
</g>
<!-- polars_selectors&#45;&gt;mars_analysis_profiler -->
<g id="edge52" class="edge">
<title>polars_selectors&#45;&gt;mars_analysis_profiler</title><style>.edge>path:hover{stroke-width:8}</style>
<path fill="none" stroke="black" d="M997.28,-1102.31C991.89,-1082.08 986.72,-1048.58 1002.88,-1026.58"/>
</g>
<!-- polars_selectors&#45;&gt;polars -->
<g id="edge53" class="edge">
<title>polars_selectors&#45;&gt;polars</title><style>.edge>path:hover{stroke-width:8}</style>
<path fill="none" stroke="black" d="M990.59,-1102.55C980.64,-1088.74 966.45,-1069.03 955.01,-1053.15"/>
<polygon fill="blue" stroke="black" points="957.88,-1051.15 949.2,-1045.08 952.2,-1055.24 957.88,-1051.15"/>
</g>
<!-- psutil -->
<g id="node27" class="node">
<title>psutil</title><style>.edge>path:hover{stroke-width:8}</style>
<ellipse fill="#6e40c0" stroke="black" cx="557.88" cy="-1025.58" rx="27" ry="18"/>
<text xml:space="preserve" text-anchor="middle" x="557.88" y="-1021.7" font-family="Helvetica,sans-Serif" font-size="10.00" fill="#ffffff">psutil</text>
</g>
<!-- psutil&#45;&gt;mars_utils_decorators -->
<g id="edge54" class="edge">
<title>psutil&#45;&gt;mars_utils_decorators</title><style>.edge>path:hover{stroke-width:8}</style>
<path fill="none" stroke="black" d="M560.44,-1007.28C565.31,-968.79 572.61,-874.07 538.88,-805.97 531.74,-791.56 519.88,-778.84 507.88,-768.58"/>
<polygon fill="#6e40c0" stroke="black" points="510.34,-766.07 500.37,-762.51 505.95,-771.52 510.34,-766.07"/>
</g>
<!-- scipy&#45;&gt;mars_metrics_calculation -->
<g id="edge55" class="edge">
<title>scipy&#45;&gt;mars_metrics_calculation</title><style>.edge>path:hover{stroke-width:8}</style>
<path fill="none" stroke="black" d="M858.88,-739.45C868.03,-699.12 837.27,-681.66 858.88,-646.4"/>
<path fill="none" stroke="black" d="M775.9,-912.53C772.39,-887.72 768.99,-840.76 785.88,-805.97 804.78,-767.01 849.29,-783.67 858.88,-741.45"/>
</g>
<!-- scipy_stats -->
<g id="node29" class="node">
<title>scipy_stats</title><style>.edge>path:hover{stroke-width:8}</style>
<ellipse fill="#ad3db8" stroke="black" cx="864.88" cy="-835.49" rx="36.98" ry="18"/>
<text xml:space="preserve" text-anchor="middle" x="864.88" y="-831.61" font-family="Helvetica,sans-Serif" font-size="10.00" fill="#ffffff">scipy.stats</text>
</g>
<!-- scipy_stats&#45;&gt;mars_metrics_calculation -->
<g id="edge56" class="edge">
<title>scipy_stats&#45;&gt;mars_metrics_calculation</title><style>.edge>path:hover{stroke-width:8}</style>
<path fill="none" stroke="black" d="M860.83,-817.11C857.11,-798.24 853,-767.33 858.88,-741.45"/>
</g>
<!-- sklearn&#45;&gt;mars_core_base -->
<g id="edge57" class="edge">
<title>sklearn&#45;&gt;mars_core_base</title><style>.edge>path:hover{stroke-width:8}</style>
<path fill="none" stroke="black" d="M395.88,-644.4C456.04,-538.17 549.4,-624.91 662.88,-579.88 667.04,-578.23 671.28,-576.28 675.44,-574.19"/>
<polygon fill="blue" stroke="black" points="677.04,-577.31 684.2,-569.5 673.73,-571.13 677.04,-577.31"/>
</g>
<!-- sklearn&#45;&gt;mars_feature_binning -->
<g id="edge58" class="edge">
<title>sklearn&#45;&gt;mars_feature_binning</title><style>.edge>path:hover{stroke-width:8}</style>
<path fill="none" stroke="black" d="M395.88,-644.4C416.25,-608.42 376.08,-587.66 395.88,-551.36"/>
<path fill="none" stroke="black" d="M475.63,-821.86C455.46,-811.03 429.12,-793.45 414.88,-769.97 386.05,-722.46 368.49,-694.75 395.88,-646.4"/>
</g>
<!-- sklearn&#45;&gt;mars_metrics_calculation -->
<g id="edge59" class="edge">
<title>sklearn&#45;&gt;mars_metrics_calculation</title><style>.edge>path:hover{stroke-width:8}</style>
<path fill="none" stroke="black" d="M530.11,-819.91C574.99,-796.08 667.54,-747.74 747.88,-710.92 785.92,-693.49 801.11,-699.64 834.88,-674.92 848.24,-665.14 849.25,-659.88 858.88,-646.4"/>
<path fill="none" stroke="black" d="M858.88,-644.4C868.97,-627.92 876.76,-607.98 882.31,-590.79"/>
<polygon fill="blue" stroke="black" points="885.61,-591.99 885.2,-581.4 878.91,-589.93 885.61,-591.99"/>
</g>
<!-- sklearn_base&#45;&gt;mars_core_base -->
<g id="edge60" class="edge">
<title>sklearn_base&#45;&gt;mars_core_base</title><style>.edge>path:hover{stroke-width:8}</style>
<path fill="none" stroke="black" d="M623.36,-912.18C627.58,-867.2 641.56,-743.62 674.88,-646.4"/>
</g>
<!-- sklearn_base&#45;&gt;sklearn -->
<g id="edge61" class="edge">
<title>sklearn_base&#45;&gt;sklearn</title><style>.edge>path:hover{stroke-width:8}</style>
<path fill="none" stroke="black" d="M599.77,-912.25C581.24,-897.76 554.56,-876.9 533.89,-860.74"/>
<polygon fill="blue" stroke="black" points="536.09,-858.01 526.05,-854.61 531.78,-863.53 536.09,-858.01"/>
</g>
<!-- sklearn_metrics -->
<g id="node32" class="node">
<title>sklearn_metrics</title><style>.edge>path:hover{stroke-width:8}</style>
<polygon fill="blue" stroke="black" points="695.88,-1043.58 641.88,-1043.58 641.88,-1007.58 695.88,-1007.58 695.88,-1043.58"/>
<text xml:space="preserve" text-anchor="middle" x="668.88" y="-1027.33" font-family="Helvetica,sans-Serif" font-size="10.00" fill="white">sklearn.</text>
<text xml:space="preserve" text-anchor="middle" x="668.88" y="-1016.08" font-family="Helvetica,sans-Serif" font-size="10.00" fill="white">metrics</text>
</g>
<!-- sklearn_metrics&#45;&gt;mars_metrics_calculation -->
<g id="edge62" class="edge">
<title>sklearn_metrics&#45;&gt;mars_metrics_calculation</title><style>.edge>path:hover{stroke-width:8}</style>
<path fill="none" stroke="black" d="M684.78,-1007.35C699.49,-989.81 719.69,-961.07 723.88,-931.53"/>
<path fill="none" stroke="black" d="M723.88,-929.53C743.44,-791.5 786.05,-765.28 858.88,-646.4"/>
</g>
<!-- sklearn_metrics&#45;&gt;sklearn_base -->
<g id="edge63" class="edge">
<title>sklearn_metrics&#45;&gt;sklearn_base</title><style>.edge>path:hover{stroke-width:8}</style>
<path fill="none" stroke="black" d="M660.25,-1007.51C653.41,-993.96 643.7,-974.73 635.76,-959.01"/>
<polygon fill="blue" stroke="black" points="638.92,-957.5 631.28,-950.16 632.67,-960.66 638.92,-957.5"/>
</g>
<!-- sklearn_tree -->
<g id="node33" class="node">
<title>sklearn_tree</title><style>.edge>path:hover{stroke-width:8}</style>
<ellipse fill="#b65389" stroke="black" cx="327.88" cy="-550.36" rx="39.64" ry="18"/>
<text xml:space="preserve" text-anchor="middle" x="327.88" y="-546.48" font-family="Helvetica,sans-Serif" font-size="10.00" fill="#ffffff">sklearn.tree</text>
</g>
<!-- sklearn_tree&#45;&gt;mars_feature_binning -->
<g id="edge64" class="edge">
<title>sklearn_tree&#45;&gt;mars_feature_binning</title><style>.edge>path:hover{stroke-width:8}</style>
<path fill="none" stroke="black" d="M352.7,-535.94C388.91,-515.96 451.82,-479.49 450.88,-467.84"/>
<path fill="none" stroke="black" d="M450.88,-465.84C448.98,-442.36 430.1,-423.93 450.88,-412.84"/>
</g>
</g>
</svg>
